<svg xmlns="http://www.w3.org/2000/svg" version="1.1" xmlns:xlink="http://www.w3.org/1999/xlink" xmlns:svgjs="http://svgjs.dev/svgjs" width="2000" height="449" viewBox="0 0 2000 449"><g transform="matrix(1,0,0,1,-1.2121212121212466,-0.20363697121490532)"><svg viewBox="0 0 396 89" data-background-color="#f8f8ff" preserveAspectRatio="xMidYMid meet" height="449" width="2000" xmlns="http://www.w3.org/2000/svg" xmlns:xlink="http://www.w3.org/1999/xlink"><g id="tight-bounds" transform="matrix(1,0,0,1,0.2400000000000091,0.04036456667734001)"><svg viewBox="0 0 395.52 88.91927086664532" height="88.91927086664532" width="395.52"><g><svg viewBox="0 0 395.52 88.91927086664532" height="88.91927086664532" width="395.52"><g><svg viewBox="0 0 395.52 88.91927086664532" height="88.91927086664532" width="395.52"><g id="textblocktransform"><svg viewBox="0 0 395.52 88.91927086664532" height="88.91927086664532" width="395.52" id="textblock"><g><svg viewBox="0 0 395.52 88.91927086664532" height="88.91927086664532" width="395.52"><g><svg viewBox="0 0 395.52 88.91927086664532" height="88.91927086664532" width="395.52"><g transform="matrix(1,0,0,1,0,0)"><svg width="395.52" viewBox="1.6 -34.75 156.34 35.15" height="88.91927086664532" data-palette-color="#d7b586"><path d="M2.1-34.5L13.45-34.5Q19.35-34.5 22.03-33.77 24.7-33.05 25.85-32.05L25.85-32.05Q28.4-29.85 28.4-25.3L28.4-25.3Q28.4-21.9 24.75-18.85L24.75-18.85Q29.4-16.5 29.4-10.1L29.4-10.1Q29.4-5.1 26.13-2.68 22.85-0.25 16.35 0L16.35 0 2.1 0 1.6-4.15Q2.25-5 4.35-5.8L4.35-5.8 4.35-28.65Q2.3-29.4 1.6-30.35L1.6-30.35 2.1-34.5ZM16-14.95L16-14.95 11.55-14.95 11.55-5.45 15-5.45Q18.4-5.45 20.15-6.45 21.9-7.45 21.9-10.05 21.9-12.65 20.53-13.8 19.15-14.95 16-14.95ZM14.15-29.05L14.15-29.05 11.55-29.05 11.55-20.4 15.65-20.4Q18.2-20.4 19.55-21.7 20.9-23 20.9-24.88 20.9-26.75 19.95-27.7 19-28.65 17.75-28.85 16.5-29.05 14.15-29.05ZM59-12.5Q59-5.95 56.02-2.78 53.05 0.4 46.4 0.4 39.75 0.4 37.07-2.73 34.4-5.85 34.4-12.5L34.4-12.5 34.4-28.65Q32.5-29.35 31.65-30.35L31.65-30.35 32.15-34.5 43.85-34.5 44.35-30.35Q43.55-29.4 41.6-28.65L41.6-28.65 41.6-12.3Q41.6-8.7 42.77-6.98 43.95-5.25 47-5.25 50.05-5.25 51.3-7.03 52.55-8.8 52.55-12.3L52.55-12.3 52.55-28.65Q50.5-29.4 49.8-30.35L49.8-30.35 50.3-34.5 61.25-34.5 61.75-30.35Q60.95-29.4 59-28.65L59-28.65 59-12.5ZM91.2-24.4L91.2-24.4Q91.2-21 89.07-18.7 86.95-16.4 83.75-15.2L83.75-15.2Q86.25-14.15 87.05-12.65L87.05-12.65 90.7-5.7Q93.05-4.9 93.9-3.85L93.9-3.85 93.4 0 84.95 0 79.2-12.25Q78.4-14.1 77.34-14.1L77.34-14.1 74.09-14.1 74.09-6.1Q77.75-5.3 78.65-4.15L78.65-4.15 78.15 0 64.64 0 64.14-4.15Q64.8-5 66.89-5.8L66.89-5.8 66.89-28.65Q64.84-29.4 64.14-30.35L64.14-30.35 64.64-34.5 77.4-34.5Q84.4-34.4 87.8-32.25 91.2-30.1 91.2-24.4ZM77.05-29.05L77.05-29.05 74.09-29.05 74.09-19.55 76.95-19.55Q80.34-19.55 82.02-20.58 83.7-21.6 83.7-24.25 83.7-26.9 82-27.98 80.3-29.05 77.05-29.05ZM106.59-34.75L113.44-34.75 123.39-5.9Q125.49-5.15 126.34-4.15L126.34-4.15 125.84 0 114.14 0 113.64-4.15Q114.24-4.95 116.04-5.65L116.04-5.65 114.69-9.85 104.69-9.85 103.44-5.8Q105.19-5.1 106.04-4.15L106.04-4.15 105.54 0 94.14 0 93.64-4.15Q94.54-5.3 96.99-6.05L96.99-6.05 106.59-34.75ZM109.99-27.75L109.29-27.75Q109.29-24.7 108.04-20.65L108.04-20.65 106.09-14.45 113.24-14.45 111.34-20.55Q110.19-24.05 110.04-26.9L110.04-26.9 109.99-27.75ZM157.94-4.15L157.44 0 149.14 0 138.04-18 146.39-29.1Q144.99-29.75 144.44-30.45L144.44-30.45 144.94-34.5 156.34-34.5 156.84-30.45Q156.14-29.65 154.24-28.85L154.24-28.85 145.59-18.2 153.49-6.3Q156.74-5.6 157.94-4.15L157.94-4.15ZM128.29-34.5L139.99-34.5 140.49-30.35Q139.69-29.4 137.74-28.65L137.74-28.65 137.74-5.8Q139.74-5 140.49-4.15L140.49-4.15 139.99 0 128.29 0 127.79-4.15Q128.44-5 130.54-5.8L130.54-5.8 130.54-28.65Q128.49-29.4 127.79-30.35L127.79-30.35 128.29-34.5Z" opacity="1" transform="matrix(1,0,0,1,0,0)" fill="#d7b586" class="wordmark-text-0" data-fill-palette-color="primary" id="text-0"></path></svg></g></svg></g></svg></g></svg></g></svg></g><g></g></svg></g><defs></defs></svg><rect width="395.52" height="88.91927086664532" fill="none" stroke="none" visibility="hidden"></rect></g></svg></g></svg>