<svg width="16" height="16" viewBox="0 0 16 16" fill="none" xmlns="http://www.w3.org/2000/svg">
<path d="M7.30179 11.1721C7.39041 11.2607 7.51053 11.3105 7.63589 11.3105C7.76114 11.3105 7.88126 11.2608 7.96988 11.1721L9.65652 9.4855C9.84109 9.30093 9.84109 9.00186 9.65652 8.81729C9.47208 8.63284 9.17288 8.63284 8.98843 8.81729L7.63589 10.1698L7.0192 9.55313C6.83463 9.36868 6.53555 9.36868 6.35098 9.55313C6.16653 9.73758 6.16653 10.0368 6.35098 10.2213L7.30179 11.1721Z" fill="#6A7A99"/>
<path d="M8.00378 13.745C10.0718 13.745 11.7542 12.0625 11.7542 9.99451C11.7542 7.92651 10.0718 6.24414 8.00378 6.24414C5.93567 6.24414 4.2533 7.92651 4.2533 9.99451C4.2533 12.0625 5.93579 13.745 8.00378 13.745ZM8.00378 7.18896C9.55078 7.18896 10.8093 8.44751 10.8093 9.99451C10.8093 11.5415 9.55078 12.8002 8.00378 12.8002C6.45679 12.8002 5.19812 11.5415 5.19812 9.99451C5.19812 8.44751 6.45679 7.18896 8.00378 7.18896Z" fill="#6A7A99"/>
<path d="M14.292 1.00598H13.4303V0.472412C13.4303 0.211548 13.2188 0 12.9579 0C12.697 0 12.4855 0.211548 12.4855 0.472412V1.00598H11.5571V0.472412C11.5571 0.211548 11.3456 0 11.0846 0C10.8237 0 10.6122 0.211548 10.6122 0.472412V1.00598H5.39539V0.472412C5.39539 0.211548 5.18384 0 4.92285 0C4.66199 0 4.45044 0.211548 4.45044 0.472412V1.00598H3.52209V0.472412C3.52209 0.211548 3.31055 0 3.04956 0C2.7887 0 2.57715 0.211548 2.57715 0.472412V1.00598H1.71533C0.872925 1.00598 0.1875 1.69141 0.1875 2.53394V14.4722C0.1875 15.3146 0.872925 16 1.71533 16H14.292C15.1345 16 15.8198 15.3146 15.8198 14.4722V2.53394C15.8198 1.69141 15.1344 1.00598 14.292 1.00598ZM14.8749 14.4722C14.8749 14.7936 14.6134 15.0552 14.292 15.0552H1.71533C1.39392 15.0552 1.13232 14.7936 1.13232 14.4722V4.93433H14.8749V14.4722ZM1.13232 2.53394C1.13232 2.2124 1.39392 1.95093 1.71533 1.95093H2.57715V2.4845C2.57715 2.74536 2.7887 2.95691 3.04968 2.95691C3.31055 2.95691 3.52209 2.74536 3.52209 2.4845V1.95093H4.45044V2.4845C4.45044 2.74536 4.66199 2.95691 4.92297 2.95691C5.18384 2.95691 5.39539 2.74536 5.39539 2.4845V1.95093H10.6122V2.4845C10.6122 2.74536 10.8237 2.95691 11.0847 2.95691C11.3456 2.95691 11.5571 2.74536 11.5571 2.4845V1.95093H12.4855V2.4845C12.4855 2.74536 12.697 2.95691 12.9579 2.95691C13.2189 2.95691 13.4304 2.74536 13.4304 2.4845V1.95093H14.292C14.6134 1.95093 14.875 2.2124 14.875 2.53394V3.98938H1.13232V2.53394Z" fill="#6A7A99"/>
</svg>
