<svg width="18" height="17" viewBox="0 0 18 17" fill="none" xmlns="http://www.w3.org/2000/svg">
<path fill-rule="evenodd" clip-rule="evenodd" d="M10.8183 8.50003L14.1518 5.35172C14.6539 4.87752 14.6539 4.10867 14.1518 3.63446C13.6497 3.16026 12.8356 3.16026 12.3335 3.63446L9.00003 6.78277L5.66653 3.63446C5.16443 3.16026 4.35036 3.16026 3.84826 3.63446C3.34615 4.10867 3.34615 4.87752 3.84826 5.35172L7.18176 8.50003L3.84826 11.6483C3.34615 12.1226 3.34615 12.8914 3.84826 13.3656C4.35036 13.8398 5.16443 13.8398 5.66653 13.3656L9.00003 10.2173L12.3335 13.3656C12.8356 13.8398 13.6497 13.8398 14.1518 13.3656C14.6539 12.8914 14.6539 12.1226 14.1518 11.6483L10.8183 8.50003Z" fill="#6D778B"/>
</svg>
