<svg width="18" height="17" viewBox="0 0 18 17" fill="none" xmlns="http://www.w3.org/2000/svg">
<path d="M16.666 0.888672H1.33268C0.963932 0.888672 0.666016 1.17264 0.666016 1.52413V16.1396C0.666016 16.4911 0.963932 16.7751 1.33268 16.7751H16.666C17.0348 16.7751 17.3327 16.4911 17.3327 16.1396V1.52413C17.3327 1.17264 17.0348 0.888672 16.666 0.888672ZM14.741 5.52551H13.4098C12.366 5.52551 12.1639 5.99813 12.1639 6.69316V8.22421H14.6556L14.3306 10.6211H12.1639V16.7751H9.56601V10.6231H7.3931V8.22421H9.56601V6.45685C9.56601 4.40552 10.8806 3.28752 12.8014 3.28752C13.7223 3.28752 14.5118 3.35305 14.7431 3.38284V5.52551H14.741Z" fill="#AAAAAA"/>
</svg>
