<svg xmlns="http://www.w3.org/2000/svg" version="1.1" xmlns:xlink="http://www.w3.org/1999/xlink" xmlns:svgjs="http://svgjs.dev/svgjs" width="128" height="128" viewBox="0 0 128 128"><g transform="matrix(0.8046875,0,0,0.8046875,12.432218760358978,2.753087129934208)"><svg viewBox="0 0 79 95" data-background-color="#000000" preserveAspectRatio="xMidYMid meet" height="153" width="128" xmlns="http://www.w3.org/2000/svg" xmlns:xlink="http://www.w3.org/1999/xlink"><g id="tight-bounds" transform="matrix(1,0,0,1,0.051987552734374276,-0.24049999999999727)"><svg viewBox="0 0 78.89602489453125 95.481" height="95.481" width="78.89602489453125"><g><svg viewBox="0 0 78.89602489453125 95.481" height="95.481" width="78.89602489453125"><g><svg viewBox="0 0 78.89602489453125 95.481" height="95.481" width="78.89602489453125"><g id="textblocktransform"><svg viewBox="0 0 78.89602489453125 95.481" height="95.481" width="78.89602489453125" id="textblock"><g><svg viewBox="0 0 78.89602489453125 95.481" height="95.481" width="78.89602489453125"><g><svg viewBox="0 0 78.89602489453125 95.481" height="95.481" width="78.89602489453125"><g><svg xmlns="http://www.w3.org/2000/svg" xmlns:xlink="http://www.w3.org/1999/xlink" version="1.1" x="0" y="0" viewBox="44.467 0 423.06600000000003 512" enable-background="new 0 0 512 512" xml:space="preserve" height="95.481" width="78.89602489453125" class="icon-icon-0" data-fill-palette-color="accent" id="icon-0"><g fill="#7c4e29" data-fill-palette-color="accent"><path d="M256 0C139.167 0 44.467 94.708 44.467 211.534 44.467 372.184 256 512 256 512s211.533-139.816 211.533-300.466C467.533 94.708 372.833 0 256 0zM256 375.941c-90.8 0-164.4-73.6-164.4-164.408 0-90.8 73.601-164.409 164.4-164.409s164.417 73.608 164.417 164.409C420.417 302.342 346.8 375.941 256 375.941z" fill="#7c4e29" data-fill-palette-color="accent"></path><polygon points="176.825,267.018 333.842,267.018 353.467,247.383 157.2,247.383  " fill="#7c4e29" data-fill-palette-color="accent"></polygon><path d="M255.333 159.067c-43.357 0-78.508 35.15-78.508 78.5h157.017C333.842 194.217 298.692 159.067 255.333 159.067z" fill="#7c4e29" data-fill-palette-color="accent"></path><path d="M265.141 149.25c0-5.417-4.383-9.817-9.808-9.817s-9.808 4.4-9.808 9.817c0 5.417 4.383 9.817 9.808 9.817S265.141 154.667 265.141 149.25z" fill="#7c4e29" data-fill-palette-color="accent"></path></g></svg></g></svg></g></svg></g></svg></g></svg></g><g></g></svg></g><defs></defs></svg><rect width="78.89602489453125" height="95.481" fill="none" stroke="none" visibility="hidden"></rect></g></svg></g></svg>