<svg width="18" height="17" viewBox="0 0 18 17" fill="none" xmlns="http://www.w3.org/2000/svg">
<path d="M8.99726 6.18301C7.46706 6.18301 6.2183 7.3733 6.2183 8.83187C6.2183 10.2904 7.46706 11.4807 8.99726 11.4807C10.5275 11.4807 11.7762 10.2904 11.7762 8.83187C11.7762 7.3733 10.5275 6.18301 8.99726 6.18301ZM17.3321 8.83187C17.3321 7.73496 17.3425 6.648 17.2779 5.55308C17.2132 4.28131 16.9089 3.15262 15.9332 2.22263C14.9555 1.29067 13.7734 1.00253 12.4392 0.940929C11.2884 0.879327 10.148 0.889263 8.99935 0.889263C7.84857 0.889263 6.70822 0.879327 5.55952 0.940929C4.22529 1.00253 3.04116 1.29265 2.0655 2.22263C1.08775 3.1546 0.785466 4.28131 0.720839 5.55308C0.656212 6.64999 0.666636 7.73695 0.666636 8.83187C0.666636 9.92678 0.656212 11.0157 0.720839 12.1107C0.785466 13.3824 1.08984 14.5111 2.0655 15.4411C3.04324 16.3731 4.22529 16.6612 5.55952 16.7228C6.7103 16.7844 7.85065 16.7745 8.99935 16.7745C10.1501 16.7745 11.2905 16.7844 12.4392 16.7228C13.7734 16.6612 14.9575 16.3711 15.9332 15.4411C16.9109 14.5091 17.2132 13.3824 17.2779 12.1107C17.3446 11.0157 17.3321 9.92877 17.3321 8.83187ZM8.99726 12.9075C6.63108 12.9075 4.72146 11.0873 4.72146 8.83187C4.72146 6.57646 6.63108 4.75624 8.99726 4.75624C11.3634 4.75624 13.2731 6.57646 13.2731 8.83187C13.2731 11.0873 11.3634 12.9075 8.99726 12.9075ZM13.4482 5.54116C12.8957 5.54116 12.4496 5.11591 12.4496 4.58932C12.4496 4.06273 12.8957 3.63748 13.4482 3.63748C14.0006 3.63748 14.4468 4.06273 14.4468 4.58932C14.4469 4.71436 14.4212 4.83821 14.3711 4.95376C14.321 5.06931 14.2474 5.17431 14.1547 5.26272C14.0619 5.35114 13.9518 5.42125 13.8305 5.46903C13.7093 5.51681 13.5794 5.54132 13.4482 5.54116Z" fill="#AAAAAA"/>
</svg>
