<svg width="40" height="26" viewBox="0 0 40 26" fill="none" xmlns="http://www.w3.org/2000/svg">
<path d="M2.53355 0H37.5065C37.9572 0.00918945 38.3859 0.196793 38.6981 0.521973C39.0103 0.847152 39.1806 1.28316 39.1715 1.73389V23.4082C39.1806 23.8589 39.0103 24.2944 38.6981 24.6196C38.3859 24.9448 37.9572 25.1329 37.5065 25.1421H2.53355C2.08283 25.1329 1.65414 24.9448 1.3419 24.6196C1.02966 24.2944 0.859402 23.8589 0.868512 23.4082V1.73389C0.859402 1.28316 1.02966 0.847152 1.3419 0.521973C1.65414 0.196793 2.08283 0.00918945 2.53355 0Z" fill="#5870BE"/>
<path d="M17.6235 12.5668C17.6239 10.791 18.1509 9.05527 19.1377 7.57897C20.1245 6.10266 21.5269 4.95214 23.1676 4.27282C24.8083 3.59349 26.6135 3.41596 28.3551 3.76256C30.0967 4.10916 31.6965 4.96437 32.952 6.22008C34.2076 7.4758 35.0627 9.07561 35.4091 10.8172C35.7555 12.5589 35.5776 14.3642 34.8981 16.0047C34.2186 17.6453 33.068 19.0474 31.5916 20.034C30.1151 21.0207 28.3793 21.5475 26.6035 21.5477C25.4242 21.5477 24.2563 21.3155 23.1667 20.8641C22.0772 20.4128 21.0872 19.7513 20.2533 18.9173C19.4194 18.0834 18.758 17.0934 18.3068 16.0038C17.8555 14.9142 17.6234 13.7461 17.6235 12.5668Z" fill="#FFAF38"/>
<path d="M12.8442 21.5459C11.3131 21.5457 9.80753 21.1541 8.47043 20.4082C7.13333 19.6623 6.00915 18.5868 5.20468 17.2841C4.40022 15.9814 3.94219 14.4949 3.87412 12.9653C3.80604 11.4357 4.13021 9.9139 4.81577 8.54487C5.50132 7.17585 6.52555 6.00524 7.79111 5.14351C9.05666 4.28178 10.5215 3.75772 12.0465 3.62153C13.5715 3.48535 15.106 3.74133 16.5042 4.36519C17.9025 4.98904 19.118 5.9601 20.0352 7.18599H18.8353V7.78609H20.4482C20.5692 7.97709 20.6833 8.17495 20.7893 8.37495H18.2352V8.97505H21.0782C21.1662 9.17505 21.2453 9.37515 21.3153 9.57515H17.6352V10.1748H21.5033C21.9894 11.9487 21.9224 13.829 21.3112 15.5639H17.6352V16.164H21.0742C20.9842 16.371 20.8873 16.5638 20.7893 16.7548H18.2352V17.3549H20.4413C20.3083 17.5649 20.1693 17.766 20.0283 17.955H18.8353V18.5551H19.5352C18.6925 19.4955 17.6611 20.2478 16.5083 20.7631C15.3554 21.2785 14.107 21.545 12.8442 21.5459Z" fill="#E63737"/>
<path d="M2.99338 14.2188L3.54008 9.95883L4.38859 10.0677L5.00983 13.2134C5.06677 13.5062 5.1076 13.7251 5.13232 13.8701C5.20064 13.7213 5.3054 13.5034 5.44661 13.2163L6.84695 10.3832L7.60537 10.4805L7.05867 14.7405L6.51528 14.6708L6.97285 11.1053L5.27738 14.5119L4.76886 14.4467L4.00218 10.662L3.53678 14.2886L2.99338 14.2188ZM9.96398 14.7264C9.74913 14.8662 9.54727 14.9585 9.3584 15.0032C9.17148 15.0481 8.97534 15.0574 8.76999 15.031C8.43097 14.9875 8.18098 14.8718 8.02001 14.6837C7.85929 14.4938 7.79547 14.2699 7.82853 14.0123C7.84792 13.8612 7.89948 13.728 7.98319 13.6127C8.06909 13.4957 8.1721 13.4066 8.29222 13.3452C8.41428 13.284 8.54753 13.2431 8.69198 13.2222C8.79814 13.2083 8.95647 13.202 9.16699 13.2034C9.59577 13.2073 9.91441 13.1871 10.1229 13.143C10.134 13.0715 10.1408 13.0261 10.1433 13.0068C10.1707 12.7937 10.1405 12.6372 10.0529 12.5373C9.93442 12.402 9.74344 12.3174 9.47998 12.2836C9.23395 12.2521 9.04625 12.2723 8.91689 12.3443C8.78972 12.4146 8.684 12.5556 8.59972 12.7673L8.09724 12.6319C8.17183 12.419 8.27097 12.2525 8.39468 12.1325C8.51863 12.0106 8.68594 11.9267 8.89661 11.8809C9.10753 11.8331 9.34569 11.8263 9.61109 11.8604C9.87456 11.8942 10.0846 11.9526 10.2414 12.0358C10.3981 12.1189 10.5091 12.2129 10.5744 12.3177C10.6399 12.4207 10.679 12.5458 10.6916 12.6931C10.6976 12.7845 10.6857 12.9464 10.6559 13.1789L10.5664 13.8763C10.504 14.3625 10.4751 14.6719 10.4797 14.8044C10.4866 14.9353 10.5153 15.064 10.566 15.1906L10.0197 15.1205C9.97942 15.0051 9.96084 14.8737 9.96398 14.7264ZM10.0703 13.5527C9.87052 13.6058 9.57729 13.6351 9.19063 13.6407C8.97162 13.6441 8.81507 13.6594 8.72098 13.6867C8.6269 13.714 8.55079 13.7623 8.49267 13.8317C8.43479 13.8991 8.40001 13.9783 8.38832 14.0694C8.37042 14.2088 8.40781 14.3318 8.50049 14.4382C8.5951 14.5449 8.74411 14.6112 8.94752 14.6373C9.149 14.6632 9.33379 14.6426 9.50189 14.5756C9.67024 14.5066 9.80105 14.4003 9.8943 14.2567C9.96565 14.1458 10.0161 13.975 10.0457 13.7445L10.0703 13.5527ZM11.123 14.3258L11.6507 14.3108C11.6532 14.5218 11.7132 14.691 11.8308 14.8183C11.9503 14.9459 12.1291 15.025 12.3674 15.0556C12.6076 15.0864 12.7921 15.0608 12.9207 14.9789C13.0497 14.895 13.1226 14.7872 13.1395 14.6555C13.1546 14.5373 13.1152 14.4377 13.0213 14.3567C12.9556 14.301 12.7849 14.2191 12.5093 14.1109C12.1382 13.9648 11.8825 13.8473 11.7423 13.7584C11.6043 13.6678 11.5045 13.5556 11.4429 13.4217C11.3835 13.286 11.3635 13.1427 11.3829 12.9916C11.4005 12.854 11.4478 12.7311 11.5247 12.6228C11.6038 12.5129 11.7026 12.4261 11.821 12.3625C11.9101 12.3129 12.027 12.2767 12.1717 12.2539C12.3186 12.2295 12.4724 12.2276 12.6332 12.2482C12.8753 12.2793 13.083 12.3414 13.2561 12.4345C13.4312 12.5278 13.5547 12.6402 13.6264 12.7715C13.6984 12.9008 13.7381 13.0674 13.7454 13.2711L13.225 13.2752C13.2222 13.1134 13.1703 12.9807 13.0694 12.8772C12.9704 12.7739 12.8192 12.7092 12.6158 12.6831C12.3755 12.6523 12.199 12.67 12.0861 12.7362C11.9733 12.8025 11.91 12.8889 11.8963 12.9954C11.8876 13.0632 11.9011 13.127 11.9368 13.1867C11.9722 13.2484 12.033 13.3034 12.1194 13.3519C12.1692 13.378 12.3175 13.4423 12.5642 13.5449C12.9216 13.6912 13.1688 13.8056 13.3059 13.8882C13.4452 13.9691 13.5487 14.0749 13.6166 14.2057C13.6845 14.3365 13.707 14.491 13.6841 14.6692C13.6618 14.8436 13.5893 15.0017 13.4667 15.1435C13.3464 15.2836 13.1848 15.384 12.9821 15.4446C12.7796 15.5033 12.5573 15.5171 12.3151 15.486C11.9141 15.4345 11.6187 15.312 11.429 15.1183C11.2411 14.9248 11.1391 14.6606 11.123 14.3258ZM15.3917 15.3344L15.4079 15.8061C15.2567 15.8182 15.123 15.8168 15.0068 15.8019C14.8169 15.7775 14.6736 15.7286 14.5767 15.6551C14.4797 15.5816 14.4162 15.4937 14.386 15.3914C14.3561 15.2871 14.3612 15.0781 14.4015 14.7643L14.6294 12.9888L14.2458 12.9396L14.298 12.5327L14.6816 12.582L14.7797 11.8177L15.3401 11.5706L15.2017 12.6487L15.7277 12.7162L15.6755 13.123L15.1495 13.0555L14.9179 14.8601C14.8988 15.0092 14.8952 15.1062 14.9072 15.1511C14.9211 15.1962 14.9467 15.234 14.9842 15.2644C15.0236 15.295 15.082 15.3153 15.1595 15.3253C15.2176 15.3327 15.295 15.3358 15.3917 15.3344ZM18.0861 15.1455L18.618 15.2817C18.4922 15.5866 18.3029 15.8114 18.05 15.9561C17.7971 16.1009 17.4914 16.1503 17.133 16.1043C16.6817 16.0464 16.3411 15.8619 16.1112 15.5508C15.8835 15.238 15.8019 14.8307 15.8663 14.329C15.9329 13.8098 16.1183 13.424 16.4224 13.1716C16.7266 12.9192 17.0917 12.8204 17.5179 12.8751C17.9306 12.928 18.2496 13.1117 18.4751 13.4262C18.7006 13.7407 18.7806 14.1526 18.7152 14.6621C18.7113 14.6931 18.7043 14.7395 18.6944 14.8012L16.393 14.5059C16.3689 14.8474 16.4314 15.1193 16.5807 15.3216C16.73 15.5239 16.9335 15.6415 17.1911 15.6746C17.3829 15.6992 17.5531 15.6699 17.7016 15.5865C17.8502 15.5032 17.9783 15.3562 18.0861 15.1455ZM16.4772 14.0795L18.2004 14.3007C18.2105 14.0381 18.1696 13.835 18.0778 13.6913C17.937 13.4684 17.7339 13.3399 17.4685 13.3059C17.2283 13.2751 17.0156 13.3295 16.8303 13.4691C16.6469 13.609 16.5292 13.8125 16.4772 14.0795ZM19.1528 16.2926L19.5489 13.2066L20.0196 13.267L19.9596 13.7349C20.1078 13.5314 20.2367 13.4012 20.3464 13.3444C20.4581 13.2878 20.5749 13.2674 20.6969 13.283C20.8732 13.3057 21.0452 13.3848 21.2129 13.5206L20.9704 13.9827C20.8523 13.8908 20.7293 13.8366 20.6014 13.8202C20.4871 13.8055 20.38 13.8272 20.28 13.8853C20.1802 13.9414 20.1031 14.028 20.0487 14.145C19.9667 14.3236 19.9116 14.5232 19.8832 14.7441L19.6759 16.3597L19.1528 16.2926ZM24.4385 15.4527L24.984 15.6675C24.8064 16.1153 24.5479 16.4415 24.2086 16.6461C23.8714 16.8489 23.481 16.9219 23.0374 16.865C22.5782 16.8061 22.2163 16.6651 21.9515 16.4421C21.6889 16.2174 21.5048 15.9181 21.3992 15.5441C21.2955 15.1705 21.2698 14.7802 21.322 14.3734C21.3789 13.9298 21.5128 13.5541 21.7236 13.2464C21.9366 12.937 22.21 12.7171 22.5438 12.5867C22.8797 12.4545 23.2356 12.4126 23.6114 12.4608C24.0376 12.5155 24.3821 12.67 24.6448 12.9243C24.9076 13.1785 25.0709 13.5096 25.1347 13.9175L24.5629 13.9771C24.5039 13.6544 24.3895 13.4103 24.2197 13.2448C24.0499 13.0793 23.8227 12.9782 23.5379 12.9417C23.2105 12.8997 22.9263 12.943 22.6853 13.0715C22.4463 13.2004 22.2652 13.3918 22.142 13.6457C22.0191 13.8977 21.9396 14.1642 21.9036 14.4451C21.8571 14.8074 21.8687 15.1308 21.9385 15.4155C22.0105 15.6984 22.1493 15.921 22.355 16.0833C22.5606 16.2455 22.7932 16.3433 23.0528 16.3766C23.3686 16.4172 23.6476 16.3604 23.8899 16.2064C24.1321 16.0524 24.315 15.8012 24.4385 15.4527ZM27.5037 16.9774C27.2889 17.1172 27.087 17.2094 26.8982 17.2541C26.7112 17.299 26.5151 17.3083 26.3097 17.282C25.9707 17.2385 25.7207 17.1227 25.5598 16.9347C25.399 16.7447 25.3352 16.5209 25.3683 16.2632C25.3877 16.1121 25.4392 15.9789 25.5229 15.8636C25.6088 15.7467 25.7119 15.6575 25.832 15.5961C25.954 15.535 26.0873 15.494 26.2317 15.4732C26.3379 15.4592 26.4962 15.4529 26.7067 15.4544C27.1355 15.4582 27.4542 15.438 27.6626 15.3939C27.6738 15.3225 27.6806 15.2771 27.6831 15.2577C27.7104 15.0446 27.6803 14.8881 27.5927 14.7883C27.4742 14.653 27.2832 14.5684 27.0197 14.5346C26.7737 14.503 26.586 14.5232 26.4566 14.5952C26.3295 14.6655 26.2237 14.8066 26.1395 15.0183L25.637 14.8829C25.7116 14.6699 25.8107 14.5035 25.9344 14.3835C26.0584 14.2615 26.2257 14.1777 26.4364 14.1318C26.6473 14.0841 26.8854 14.0772 27.1508 14.1113C27.4143 14.1451 27.6244 14.2036 27.7811 14.2867C27.9378 14.3698 28.0488 14.4638 28.1141 14.5687C28.1797 14.6716 28.2188 14.7968 28.2314 14.9441C28.2374 15.0354 28.2254 15.1973 28.1956 15.4298L28.1061 16.1272C28.0437 16.6135 28.0148 16.9229 28.0195 17.0554C28.0263 17.1862 28.0551 17.315 28.1058 17.4416L27.5595 17.3715C27.5192 17.256 27.5006 17.1247 27.5037 16.9774ZM27.6101 15.8036C27.4103 15.8568 27.117 15.8861 26.7304 15.8916C26.5114 15.895 26.3548 15.9103 26.2607 15.9377C26.1666 15.965 26.0905 16.0133 26.0324 16.0826C25.9745 16.15 25.9398 16.2292 25.9281 16.3203C25.9102 16.4598 25.9476 16.5827 26.0402 16.6891C26.1349 16.7958 26.2839 16.8622 26.4873 16.8883C26.6887 16.9141 26.8735 16.8935 27.0416 16.8265C27.21 16.7575 27.3408 16.6513 27.434 16.5077C27.5054 16.3967 27.5559 16.2259 27.5854 15.9954L27.6101 15.8036ZM28.748 17.524L29.144 14.438L29.6148 14.4984L29.5547 14.9662C29.7029 14.7627 29.8319 14.6326 29.9416 14.5758C30.0532 14.5192 30.17 14.4988 30.2921 14.5144C30.4684 14.537 30.6403 14.6162 30.808 14.7519L30.5656 15.2141C30.4474 15.1221 30.3244 15.068 30.1966 15.0516C30.0823 15.0369 29.9751 15.0586 29.8751 15.1166C29.7754 15.1728 29.6983 15.2593 29.6439 15.3764C29.5619 15.5549 29.5067 15.7546 29.4784 15.9755L29.271 17.5911L28.748 17.524ZM32.7377 18.036L32.7877 17.6466C32.5528 17.9276 32.2454 18.0437 31.8657 17.995C31.6197 17.9634 31.4018 17.8665 31.2119 17.7043C31.0239 17.5424 30.8883 17.333 30.8051 17.0761C30.7241 16.8176 30.7038 16.5305 30.7444 16.2147C30.7839 15.9067 30.871 15.6343 31.0058 15.3976C31.1408 15.1589 31.3195 14.986 31.542 14.8786C31.7645 14.7713 32.0027 14.7339 32.2564 14.7665C32.4424 14.7904 32.6029 14.8513 32.738 14.9494C32.8734 15.0456 32.9785 15.1624 33.0534 15.3L33.2496 13.7716L33.7697 13.8383L33.223 18.0983L32.7377 18.036ZM31.2819 16.2837C31.2312 16.6789 31.2766 16.985 31.4181 17.2021C31.5596 17.4191 31.7437 17.5422 31.9703 17.5713C32.1989 17.6006 32.4046 17.5325 32.5873 17.3669C32.7722 17.1996 32.8893 16.9242 32.9385 16.5406C32.9927 16.1183 32.9511 15.7979 32.8137 15.5794C32.6764 15.3609 32.4885 15.2364 32.2503 15.2058C32.0178 15.176 31.8109 15.2459 31.6296 15.4156C31.4503 15.5856 31.3344 15.875 31.2819 16.2837Z" fill="white"/>
</svg>
