<svg xmlns="http://www.w3.org/2000/svg" width="520.986" height="233.729" viewBox="0 0 520.986 233.729">
  <g id="Group_8501" data-name="Group 8501" transform="translate(-862 -413)" opacity="0.3">
    <g id="Group_8469" data-name="Group 8469" transform="translate(1044.507 413)">
      <path id="Path_27386" data-name="Path 27386" d="M1046.192,587.384a87.192,87.192,0,1,1,87.192-87.192A87.292,87.292,0,0,1,1046.192,587.384Zm0-166.8a79.61,79.61,0,1,0,79.61,79.61A79.7,79.7,0,0,0,1046.192,420.582Z" transform="translate(-959 -413)" fill="#1a2d39"/>
    </g>
    <g id="Group_8470" data-name="Group 8470" transform="translate(981.956 553.512)">
      <path id="Path_27387" data-name="Path 27387" d="M949.533,583.348a20.841,20.841,0,0,1-14.745-35.584L992.42,490.13l29.488,29.488L964.274,577.25A20.785,20.785,0,0,1,949.533,583.348Zm42.887-82.5-52.271,52.272a13.269,13.269,0,0,0,18.765,18.765l52.274-52.271Z" transform="translate(-928.691 -490.13)" fill="#1a2d39"/>
    </g>
    <g id="Group_8471" data-name="Group 8471" transform="translate(1054.733 554.376)">
      <rect id="Rectangle_2938" data-name="Rectangle 2938" width="20.105" height="7.581" transform="translate(0 14.216) rotate(-45)" fill="#1a2d39"/>
    </g>
    <g id="Group_8472" data-name="Group 8472" transform="translate(943.505 424.373)">
      <path id="Path_27388" data-name="Path 27388" d="M1019.042,426.582H914.791a3.791,3.791,0,1,1,0-7.582h104.251a3.791,3.791,0,1,1,0,7.582Z" transform="translate(-911 -419)" fill="#1a2d39"/>
    </g>
    <g id="Group_8473" data-name="Group 8473" transform="translate(971.938 450.909)">
      <path id="Path_27389" data-name="Path 27389" d="M977.178,440.582H929.791a3.791,3.791,0,1,1,0-7.582h47.387a3.791,3.791,0,1,1,0,7.582Z" transform="translate(-926 -433)" fill="#1a2d39"/>
    </g>
    <g id="Group_8474" data-name="Group 8474" transform="translate(954.878 477.446)">
      <path id="Path_27390" data-name="Path 27390" d="M971.969,454.582H920.791a3.791,3.791,0,1,1,0-7.582h51.178a3.791,3.791,0,0,1,0,7.582Z" transform="translate(-917 -447)" fill="#1a2d39"/>
    </g>
    <g id="Group_8475" data-name="Group 8475" transform="translate(1254.093 522.938)">
      <path id="Path_27391" data-name="Path 27391" d="M1113.969,478.582h-51.178a3.791,3.791,0,1,1,0-7.582h51.178a3.791,3.791,0,1,1,0,7.582Z" transform="translate(-1059 -471)" fill="#1a2d39"/>
    </g>
    <g id="Group_8476" data-name="Group 8476" transform="translate(1324.226 521.042)">
      <path id="Path_27392" data-name="Path 27392" d="M1150.969,477.582h-51.178a3.791,3.791,0,1,1,0-7.582h51.178a3.791,3.791,0,1,1,0,7.582Z" transform="translate(-1096 -470)" fill="#1a2d39"/>
    </g>
    <g id="Group_8477" data-name="Group 8477" transform="translate(862 477.446)">
      <path id="Path_27393" data-name="Path 27393" d="M947.61,454.582H871.791a3.791,3.791,0,1,1,0-7.582H947.61a3.791,3.791,0,1,1,0,7.582Z" transform="translate(-868 -447)" fill="#1a2d39"/>
    </g>
    <g id="Group_8478" data-name="Group 8478" transform="translate(1234.055 471.76)">
      <path id="Path_27394" data-name="Path 27394" d="M1138.61,451.582h-75.819a3.791,3.791,0,1,1,0-7.582h75.819a3.791,3.791,0,0,1,0,7.582Z" transform="translate(-1059 -444)" fill="#1a2d39"/>
    </g>
    <g id="Group_8479" data-name="Group 8479" transform="translate(1246.195 496.401)">
      <path id="Path_27395" data-name="Path 27395" d="M1110.282,464.582h-45.491a3.791,3.791,0,1,1,0-7.582h45.491a3.791,3.791,0,1,1,0,7.582Z" transform="translate(-1061 -457)" fill="#1a2d39"/>
    </g>
    <g id="Group_8484" data-name="Group 8484" transform="translate(1095.685 486.924)">
      <g id="Group_8480" data-name="Group 8480">
        <circle id="Ellipse_517" data-name="Ellipse 517" cx="8.53" cy="8.53" r="8.53" fill="#1a2d39"/>
      </g>
      <g id="Group_8481" data-name="Group 8481" transform="translate(53.074)">
        <circle id="Ellipse_518" data-name="Ellipse 518" cx="8.53" cy="8.53" r="8.53" fill="#1a2d39"/>
      </g>
      <g id="Group_8482" data-name="Group 8482" transform="translate(8.53 31.869)">
        <path id="Path_27396" data-name="Path 27396" d="M1040.6,483.383a2.844,2.844,0,0,1-1.651-.529c-24.446-17.463-45.006-2.576-45.869-1.933a2.843,2.843,0,0,1-3.412-4.549c.246-.182,24.674-18.081,52.586,1.854a2.843,2.843,0,0,1-1.655,5.158Z" transform="translate(-988.531 -468.813)" fill="#1a2d39"/>
      </g>
    </g>
  </g>
</svg>
