<svg width="39" height="26" viewBox="0 0 39 26" fill="none" xmlns="http://www.w3.org/2000/svg">
<path d="M1.71644 0.161133H36.4514C36.9002 0.173188 37.326 0.362146 37.6359 0.687012C37.9457 1.01188 38.1145 1.44616 38.1054 1.89502V23.5679C38.1145 24.0167 37.9457 24.451 37.6359 24.7759C37.326 25.1007 36.9002 25.2897 36.4514 25.3018H1.71644C1.26764 25.2897 0.841745 25.1007 0.531868 24.7759C0.22199 24.451 0.0532441 24.0167 0.0623851 23.5679V1.896C0.0529764 1.44696 0.221718 1.01258 0.531623 0.6875C0.841529 0.362418 1.26747 0.173187 1.71644 0.161133Z" fill="#F1F1F1"/>
<path d="M0.474251 24.7109C0.208634 24.3902 0.0639688 23.9863 0.065315 23.5698V1.896C0.0559064 1.44696 0.224526 1.01258 0.534431 0.6875C0.844337 0.362418 1.27027 0.173187 1.71925 0.161133H36.4533C36.8749 0.162079 37.2793 0.328593 37.5792 0.625L0.479255 24.7109H0.474251Z" fill="white" fill-opacity="0.73"/>
<path d="M14.7107 18.1265L16.0106 15.7764L15.2866 10.1324H17.0576L17.3436 13.4727L19.0767 10.1324H20.9047L16.6957 18.1265H14.7107ZM9.15759 13.9107C9.43059 12.5367 10.7576 12.1007 12.7196 12.1007C12.8366 11.4897 12.4476 11.3364 11.7856 11.3594C11.202 11.3877 10.6282 11.5209 10.0917 11.7525L10.2466 10.3795C10.8907 10.1793 11.5579 10.0619 12.2317 10.0303C13.4577 10.0083 14.8206 10.3997 14.5096 11.9927L13.7506 15.7427H11.9796L12.0956 15.1744C11.89 15.3865 11.6443 15.5559 11.3727 15.6719C11.1011 15.788 10.8091 15.8487 10.5137 15.8507C9.67467 15.8467 8.92769 15.3003 9.15869 13.9063L9.15759 13.9107ZM10.9686 13.8233C10.9129 13.9022 10.8812 13.9958 10.8774 14.0924C10.8737 14.1889 10.898 14.2847 10.9474 14.3677C10.9968 14.4508 11.0691 14.5179 11.1558 14.5606C11.2424 14.6034 11.3397 14.6198 11.4357 14.6085C11.6548 14.6182 11.87 14.5485 12.0417 14.4122C12.2135 14.2758 12.3303 14.0824 12.3706 13.8668C12.3938 13.6982 12.4272 13.5313 12.4706 13.3668H12.0226C11.823 13.3483 11.6221 13.3799 11.438 13.4591C11.2539 13.5382 11.0925 13.6619 10.9686 13.8194V13.8233ZM3.05762 15.7427L4.52161 8.57038H7.82861C8.12341 8.56777 8.41457 8.636 8.67761 8.76912C8.94066 8.90223 9.16797 9.09643 9.34045 9.33552C9.51294 9.57461 9.62559 9.85153 9.66895 10.1431C9.71231 10.4347 9.68506 10.7324 9.5896 11.0113C9.49441 11.6672 9.16566 12.2666 8.6637 12.6993C8.16173 13.132 7.52038 13.3693 6.85767 13.3668H5.47461L4.99963 15.7427H3.05762ZM5.75061 11.9927H6.66064C6.92684 11.9715 7.17889 11.864 7.37891 11.6871C7.57892 11.5102 7.71609 11.2729 7.76965 11.0113C7.81163 10.9037 7.82703 10.7878 7.81458 10.6729C7.80212 10.5581 7.76219 10.4478 7.69812 10.3516C7.63405 10.2555 7.54775 10.1764 7.44653 10.1207C7.34532 10.065 7.23209 10.034 7.11658 10.0313H6.16663L5.75061 11.9927Z" fill="#3284AE"/>
<path d="M26.3744 13.9058C26.6504 12.5318 27.9913 12.0972 29.9803 12.0972C30.1183 11.4852 29.7244 11.334 29.0544 11.356C28.4583 11.3866 27.8718 11.5193 27.3204 11.748L27.4784 10.375C28.1382 10.1774 28.8195 10.0604 29.5074 10.0269C30.7484 10.0049 32.1074 10.3958 31.7924 11.9878L31.0244 15.7368H29.2513L29.3694 15.1709C28.9398 15.6 28.3585 15.8431 27.7513 15.8472C26.8933 15.8462 26.1374 15.3008 26.3744 13.9058ZM28.2074 13.8188C28.1535 13.9004 28.1242 13.996 28.123 14.0938C28.1219 14.1915 28.149 14.2873 28.201 14.3701C28.2531 14.4529 28.3277 14.5191 28.4163 14.5605C28.5048 14.602 28.6035 14.6171 28.7004 14.604C28.9182 14.6137 29.1321 14.5438 29.3024 14.4077C29.4727 14.2716 29.5878 14.0783 29.6263 13.8638C29.6653 13.6888 29.6854 13.5358 29.7264 13.3638H29.2933C29.0884 13.343 28.8815 13.3739 28.6914 13.4531C28.5013 13.5324 28.3339 13.6577 28.2043 13.8179L28.2074 13.8188ZM31.8434 15.7368L33.3094 8.54297H35.1294L33.6444 15.7368H31.8434ZM20.2744 15.7368L21.7365 8.56592H25.0364C25.3303 8.56512 25.6203 8.63441 25.8821 8.76807C26.1439 8.90172 26.3701 9.09592 26.5419 9.33447C26.7136 9.57302 26.826 9.84896 26.8698 10.1396C26.9135 10.4303 26.8873 10.7273 26.7933 11.0059C26.698 11.664 26.3674 12.2652 25.8627 12.6982C25.3579 13.1313 24.7133 13.3667 24.0483 13.3608H22.6854L22.1914 15.7358L20.2744 15.7368ZM22.9614 11.9878H23.8494C24.1177 11.9671 24.3723 11.8608 24.5753 11.6841C24.7783 11.5074 24.919 11.2698 24.9764 11.0068C25.0162 10.8977 25.0294 10.7808 25.0149 10.6655C25.0004 10.5503 24.9586 10.4401 24.8929 10.3442C24.8273 10.2484 24.7398 10.17 24.6376 10.1147C24.5354 10.0595 24.4215 10.0292 24.3054 10.0269H23.3574L22.9614 11.9878Z" fill="#3CA9C7"/>
</svg>
