<svg width="17" height="17" viewBox="0 0 17 17" fill="none" xmlns="http://www.w3.org/2000/svg">
<path fill-rule="evenodd" clip-rule="evenodd" d="M9.71438 7.28581V2.83343C9.71438 2.16279 9.17072 1.61914 8.50009 1.61914C7.82946 1.61914 7.28581 2.16279 7.28581 2.83343V7.28581H2.83343C2.16279 7.28581 1.61914 7.82946 1.61914 8.50009C1.61914 9.17072 2.16279 9.71438 2.83343 9.71438H7.28581V14.1668C7.28581 14.8374 7.82946 15.381 8.50009 15.381C9.17072 15.381 9.71438 14.8374 9.71438 14.1668V9.71438H14.1668C14.8374 9.71438 15.381 9.17072 15.381 8.50009C15.381 7.82946 14.8374 7.28581 14.1668 7.28581H9.71438Z" fill="#6D778B"/>
<mask id="mask0_941_2753" style="mask-type:alpha" maskUnits="userSpaceOnUse" x="1" y="1" width="15" height="15">
<path fill-rule="evenodd" clip-rule="evenodd" d="M9.71438 7.28581V2.83343C9.71438 2.16279 9.17072 1.61914 8.50009 1.61914C7.82946 1.61914 7.28581 2.16279 7.28581 2.83343V7.28581H2.83343C2.16279 7.28581 1.61914 7.82946 1.61914 8.50009C1.61914 9.17072 2.16279 9.71438 2.83343 9.71438H7.28581V14.1668C7.28581 14.8374 7.82946 15.381 8.50009 15.381C9.17072 15.381 9.71438 14.8374 9.71438 14.1668V9.71438H14.1668C14.8374 9.71438 15.381 9.17072 15.381 8.50009C15.381 7.82946 14.8374 7.28581 14.1668 7.28581H9.71438Z" fill="white"/>
</mask>
<g mask="url(#mask0_941_2753)">
</g>
</svg>
