<svg width="29" height="29" viewBox="0 0 29 29" fill="none" xmlns="http://www.w3.org/2000/svg">
<path fill-rule="evenodd" clip-rule="evenodd" d="M23.5885 5.43054L20.659 2.50109L19.1943 3.96582L22.1237 6.89527L23.5885 5.43054ZM25.7855 6.16228L22.1237 9.82411L16.2648 3.96518L19.9266 0.303356C20.331 -0.101119 20.9868 -0.101119 21.3913 0.303356L25.7855 4.69755C26.1899 5.10202 26.1899 5.7578 25.7855 6.16228ZM1.03572 26.9278H27.9645C28.5365 26.9278 29.0002 27.3915 29.0002 27.9635C29.0002 28.5355 28.5365 28.9992 27.9645 28.9992H1.03572C0.463708 28.9992 0 28.5355 0 27.9635C0 27.3915 0.463708 26.9278 1.03572 26.9278ZM14.7999 5.43022L20.6588 11.2891L8.941 23.0069L3.14075 24.1669C2.57985 24.2791 2.03421 23.9154 1.92202 23.3545C1.89521 23.2204 1.89521 23.0823 1.92202 22.9482L3.08207 17.148L14.7999 5.43022ZM4.99052 18.1682L4.25816 21.83L7.91998 21.0977L17.7296 11.288L14.8001 8.35854L4.99052 18.1682Z" fill="black"/>
</svg>
