<?xml version="1.0" ?><svg viewBox="0 0 68 68" xmlns="http://www.w3.org/2000/svg"><defs><style>.cls-1{fill:#404a6b;}</style></defs><title/><g data-name="Icon 7" id="Icon_7"><path class="cls-1" d="M33,44.33v.03h.46c.23.01.47.01.72.01.28,0,.56,0,.82-.01v-.03C34.34,44.35,33.67,44.34,33,44.33Zm-4.49-.3a.09.09,0,0,0-.05-.01c-.52-.06-1.02-.12-1.46-.2v.05c.61.11,1.28.2,2,.27v-.06C28.83,44.06,28.67,44.05,28.51,44.03Z"/><path class="cls-1" d="M42.36,22.36a7.4518,7.4518,0,0,0-1.06.08,8.2042,8.2042,0,0,0-14.6,0,7.4518,7.4518,0,0,0-1.06-.08,7.138,7.138,0,0,0-1.86,14.03v4.35A10.1257,10.1257,0,0,0,27,41.77V37.02a1,1,0,0,1,2,0v5.07c1.11.13,2.44.23,4,.26V37.02a1,1,0,0,1,2,0v5.34c1.57-.02,2.89-.11,4-.23V37.02a1,1,0,0,1,2,0v4.8a8.6314,8.6314,0,0,0,3.22-1.08V36.39a7.138,7.138,0,0,0-1.86-14.03Zm2.36,20.48a.9775.9775,0,0,0-.5-.1A8.6314,8.6314,0,0,1,41,43.82v.03c-.59.12-1.24.2-1.93.27a.17.17,0,0,0-.07.01c-1.11.12-2.43.21-4,.23-.26.01-.54.01-.82.01-.25,0-.49,0-.72-.01H33v-.01c-1.56-.03-2.89-.13-4-.26v.05c-.72-.07-1.39-.16-2-.27v-.1a10.1257,10.1257,0,0,1-3.22-1.03,1.0107,1.0107,0,0,0-1.16.99v3.69c0,.64,0,2.6,11.89,2.6a50.524,50.524,0,0,0,6.89-.4c1.92-.27,3.88-.75,3.88-2.2V43.73A.9861.9861,0,0,0,44.72,42.84Z"/><path class="cls-1" d="M39.68,44.04a.7719.7719,0,0,0-.15.02c-.17.02-.35.04-.53.06v.01a.17.17,0,0,1,.07-.01c.69-.07,1.34-.15,1.93-.27v-.01C40.59,43.91,40.15,43.98,39.68,44.04Z"/><path class="cls-1" d="M35,44.33v.03c-.26.01-.54.01-.82.01-.25,0-.49,0-.72-.01H33v-.03C33.67,44.34,34.34,44.35,35,44.33Z"/><path class="cls-1" d="M41,43.84v.01c-.59.12-1.24.2-1.93.27a.17.17,0,0,0-.07.01v-.01c.18-.02.36-.04.53-.06a.7719.7719,0,0,1,.15-.02C40.15,43.98,40.59,43.91,41,43.84Z"/><path class="cls-1" d="M29,44.08v.06c-.72-.07-1.39-.16-2-.27v-.05c.44.08.94.14,1.46.2a.09.09,0,0,1,.05.01C28.67,44.05,28.83,44.06,29,44.08Z"/><path class="cls-1" d="M30.33,55.39a1.6837,1.6837,0,0,0-1.23.53,21.1336,21.1336,0,0,1-8.19-3.82.642.642,0,0,0-.13-.1,21.2836,21.2836,0,0,1-8.23-16.78v-.01a21.2468,21.2468,0,0,1,7.94-16.56,4.9162,4.9162,0,0,0,.45-.28l.01-.01c.2-.13.51-.3.89-.5,2.67-1.45,8.93-4.83,8.44-11.33a.993.993,0,0,0-.99-.92,10.38,10.38,0,0,0-6.86,2.95c-1.97,2-2.99,4.84-3.04,8.42a.5547.5547,0,0,0-.08.06,22.4168,22.4168,0,0,0-3.24,3.14c.06-3.22-.62-7.69-4.21-10.6a.9891.9891,0,0,0-.84-.2,1.0053,1.0053,0,0,0-.69.53c-.14.29-3.44,7.07-1.16,11.5a6.2808,6.2808,0,0,0,3.96,3.14,22.1194,22.1194,0,0,0-2.1,6.01c-1.35-2.77-3.81-5.87-8.11-6.31a.9971.9971,0,0,0-.77.26.9635.9635,0,0,0-.33.73c0,.33.01,6.42,3.55,9.44a6.9459,6.9459,0,0,0,4.68,1.66,4.7845,4.7845,0,0,0,.53-.02,22.8182,22.8182,0,0,0,1.39,6.87,15.6025,15.6025,0,0,0-10.15.52.9979.9979,0,0,0-.59.63.972.972,0,0,0,.12.86c.12.18,2.98,4.41,6.96,4.45h.07a7.076,7.076,0,0,0,5.31-2.8,23.0649,23.0649,0,0,0,3.95,5.07c-2.99.46-7.48,2.33-8.47,9.33a.9889.9889,0,0,0,.26.82.97.97,0,0,0,.73.32h.07c.08-.01,8.23-.65,10.6-7.9a22.7827,22.7827,0,0,0,8.02,3.42,1.6966,1.6966,0,1,0,1.48-2.52Z"/><path class="cls-1" d="M66.77,44.34a.9979.9979,0,0,0-.59-.63,15.6025,15.6025,0,0,0-10.15-.52,22.8182,22.8182,0,0,0,1.39-6.87,4.7845,4.7845,0,0,0,.53.02,6.9459,6.9459,0,0,0,4.68-1.66c3.54-3.02,3.55-9.11,3.55-9.44a.9635.9635,0,0,0-.33-.73.9971.9971,0,0,0-.77-.26c-4.3.44-6.76,3.54-8.11,6.31a22.1194,22.1194,0,0,0-2.1-6.01,6.2808,6.2808,0,0,0,3.96-3.14c2.28-4.43-1.02-11.21-1.16-11.5a1.0053,1.0053,0,0,0-.69-.53.9891.9891,0,0,0-.84.2c-3.59,2.91-4.27,7.38-4.21,10.6a22.4168,22.4168,0,0,0-3.24-3.14.5547.5547,0,0,0-.08-.06c-.05-3.58-1.07-6.42-3.04-8.42a10.38,10.38,0,0,0-6.86-2.95.993.993,0,0,0-.99.92c-.49,6.5,5.77,9.88,8.44,11.33.38.21.7.37.88.49,0,.01.01.01.02.02a4.9162,4.9162,0,0,0,.45.28,21.2468,21.2468,0,0,1,7.94,16.56v.01A21.2878,21.2878,0,0,1,47.09,52.1a21.0258,21.0258,0,0,1-8.36,3.86,1.672,1.672,0,0,0-1.04-.42,1.7014,1.7014,0,0,0-.14,3.4,1.6772,1.6772,0,0,0,1.63-1.04,22.8024,22.8024,0,0,0,7.99-3.41c2.37,7.25,10.52,7.89,10.6,7.9h.07a.97.97,0,0,0,.73-.32.9889.9889,0,0,0,.26-.82c-.99-7-5.48-8.87-8.47-9.33a23.0649,23.0649,0,0,0,3.95-5.07,7.076,7.076,0,0,0,5.31,2.8h.07c3.98-.04,6.84-4.27,6.96-4.45A.972.972,0,0,0,66.77,44.34Z"/></g></svg>