<svg width="24" height="24" viewBox="0 0 24 24" fill="none" xmlns="http://www.w3.org/2000/svg">
<path fill-rule="evenodd" clip-rule="evenodd" d="M0.666016 3.32877C0.666016 3.69697 0.964493 3.99545 1.33268 3.99545H3.18988C3.53133 3.99545 3.81758 4.25342 3.85296 4.59302L5.13331 16.8806C5.23947 17.8994 6.09822 18.6733 7.12254 18.6733H19.9589C20.3271 18.6733 20.6256 18.3749 20.6256 18.0067C20.6256 17.6385 20.3271 17.34 19.9589 17.34H7.12254C6.7811 17.34 6.49485 17.082 6.45946 16.7424L6.37547 15.9364L19.2498 14.73C19.6574 14.6918 20.0006 14.4089 20.116 14.0161L22.2896 6.61516C22.4776 5.97476 21.9975 5.33337 21.3301 5.33337H5.27066L5.17912 4.45483C5.07296 3.43603 4.21421 2.66211 3.18988 2.66211H1.33268C0.964493 2.66211 0.666016 2.96059 0.666016 3.32877Z" fill="white"/>
<path fill-rule="evenodd" clip-rule="evenodd" d="M7.99935 22.6667C8.73573 22.6667 9.33268 22.0697 9.33268 21.3333C9.33268 20.597 8.73573 20 7.99935 20C7.26297 20 6.66602 20.597 6.66602 21.3333C6.66602 22.0697 7.26297 22.6667 7.99935 22.6667Z" fill="white"/>
<path fill-rule="evenodd" clip-rule="evenodd" d="M17.3333 22.6667C18.0697 22.6667 18.6667 22.0697 18.6667 21.3333C18.6667 20.597 18.0697 20 17.3333 20C16.597 20 16 20.597 16 21.3333C16 22.0697 16.597 22.6667 17.3333 22.6667Z" fill="white"/>
</svg>
