<svg viewBox="0 0 99.3 99.3" xml:space="preserve" xmlns="http://www.w3.org/2000/svg" enable-background="new 0 0 99.3 99.3"><path d="M42.9 41.3c9.3 0 16.9-7.6 16.9-16.9 0-9.3-7.6-16.8-16.9-16.8-9.3 0-16.9 7.5-16.9 16.8s7.6 16.9 16.9 16.9zm0-30.7c7.6 0 13.9 6.2 13.9 13.8 0 7.6-6.2 13.9-13.9 13.9S29 32 29 24.4c0-7.6 6.2-13.8 13.9-13.8z" fill="#6a7a99" class="fill-000000"></path><path d="M88.4 72h-4.5V49c0-.4-.1-.8-.4-1l-3.7-4c1.2-2.3.6-5.2-1.4-6.9l-4.1-3.5c-1.2-1-2.7-1.5-4.2-1.3-1.5.1-2.9.8-3.9 2-2 2.4-1.7 6.1.7 8.1l4.1 3.5c1.1.9 2.4 1.4 3.7 1.4 1.1 0 2.2-.3 3.1-.9l3.1 3.3V72h-8.5c-.4-15.7-13.3-28.3-29-28.3-15.8 0-28.7 12.6-29 28.3h-3.7c-.8 0-1.5.7-1.5 1.5v16.4c0 .8.7 1.5 1.5 1.5h77.8c.8 0 1.5-.7 1.5-1.5V73.5c-.1-.8-.8-1.5-1.6-1.5zM72.9 43.6l-4.1-3.5c-1.2-1-1.3-2.7-.3-3.9.5-.6 1.1-.9 1.9-1h.2c.6 0 1.3.2 1.8.7l4.1 3.5c1.2 1 1.3 2.7.3 3.9-1 1.1-2.7 1.3-3.9.3zm-29.6 3c14.1 0 25.7 11.3 26 25.3h-52c.4-14 11.9-25.3 26-25.3zm43.6 41.8H12.1V75h74.8v13.4z" fill="#6a7a99" class="fill-000000"></path></svg>