<svg width="18" height="17" viewBox="0 0 18 17" fill="none" xmlns="http://www.w3.org/2000/svg">
<path d="M16.666 0.888672H1.33268C0.963932 0.888672 0.666016 1.17264 0.666016 1.52413V16.1396C0.666016 16.4911 0.963932 16.7751 1.33268 16.7751H16.666C17.0348 16.7751 17.3327 16.4911 17.3327 16.1396V1.52413C17.3327 1.17264 17.0348 0.888672 16.666 0.888672ZM13.4848 6.64153C13.491 6.73486 13.491 6.83217 13.491 6.92749C13.491 9.84264 11.1618 13.2006 6.9056 13.2006C5.5931 13.2006 4.37643 12.8372 3.35143 12.2117C3.53893 12.2316 3.7181 12.2395 3.90977 12.2395C4.9931 12.2395 5.98893 11.89 6.78268 11.2982C5.76602 11.2784 4.91185 10.6429 4.62018 9.76916C4.97643 9.81881 5.29726 9.81881 5.66393 9.72945C5.14044 9.62807 4.66992 9.35708 4.3323 8.9625C3.99468 8.56792 3.81078 8.0741 3.81185 7.56493V7.53713C4.1181 7.70195 4.47852 7.80322 4.8556 7.81712C4.5386 7.61575 4.27864 7.34294 4.09875 7.02286C3.91886 6.70279 3.82461 6.34535 3.82435 5.98225C3.82435 5.57119 3.93685 5.19587 4.13893 4.8702C4.71998 5.552 5.44504 6.10962 6.26698 6.50683C7.08893 6.90403 7.98936 7.13193 8.90976 7.17571C8.58268 5.67643 9.75768 4.46311 11.1702 4.46311C11.8368 4.46311 12.4368 4.72921 12.8598 5.15814C13.3827 5.06481 13.8827 4.87814 14.3285 4.62793C14.1556 5.13828 13.7931 5.5692 13.3118 5.84125C13.7785 5.79359 14.2285 5.67048 14.6452 5.49771C14.3306 5.93856 13.9368 6.32976 13.4848 6.64153Z" fill="#AAAAAA"/>
</svg>
