<svg width="39" height="26" viewBox="0 0 39 26" fill="none" xmlns="http://www.w3.org/2000/svg">
<path d="M1.66636 0.197266H36.6484C36.8717 0.201686 37.0918 0.250301 37.2964 0.339844C37.5009 0.429386 37.6858 0.558212 37.8406 0.719238C37.9953 0.880264 38.1168 1.07034 38.1981 1.27832C38.2794 1.4863 38.3188 1.70838 38.3143 1.93164V23.6074C38.3232 24.0581 38.1526 24.4939 37.8402 24.8188C37.5278 25.1438 37.0991 25.3314 36.6484 25.3403H1.66636C1.21564 25.3314 0.786894 25.1438 0.474468 24.8188C0.162042 24.4939 -0.00849293 24.0581 0.000346514 23.6074V1.93164C-0.00416333 1.70838 0.0353878 1.4863 0.11668 1.27832C0.197971 1.07034 0.31939 0.880264 0.474101 0.719238C0.628812 0.558212 0.813726 0.429386 1.01829 0.339844C1.22286 0.250301 1.4431 0.201686 1.66636 0.197266Z" fill="#353A40"/>
<path d="M22.6891 16.7611C22.4247 16.6267 22.2073 16.415 22.0652 16.1547C21.8947 15.836 21.8119 15.4782 21.8252 15.1171C21.8105 14.8709 21.8448 14.6243 21.9261 14.3915C22.0075 14.1587 22.1344 13.9445 22.2992 13.7611C22.4744 13.5942 22.682 13.465 22.9093 13.3817C23.1366 13.2985 23.3785 13.2625 23.6201 13.2767C23.8636 13.2611 24.1077 13.2953 24.3374 13.3773C24.5671 13.4594 24.7777 13.5875 24.9562 13.7538C25.1195 13.9338 25.245 14.1446 25.3256 14.3739C25.4061 14.6032 25.44 14.8462 25.4252 15.0888C25.44 15.4404 25.3714 15.7906 25.2251 16.1107C25.0929 16.3713 24.8871 16.5873 24.6332 16.7318C24.3358 16.8891 24.0023 16.9658 23.6661 16.954C23.3299 16.9661 22.9954 16.9001 22.6891 16.7611ZM23.0951 14.3441C22.9662 14.5825 22.8987 14.849 22.8987 15.12C22.8987 15.391 22.9662 15.6575 23.0951 15.8959C23.1631 15.9697 23.2457 16.0284 23.3376 16.0687C23.4296 16.109 23.5288 16.1303 23.6292 16.1303C23.7295 16.1303 23.8287 16.109 23.9207 16.0687C24.0126 16.0284 24.0951 15.9697 24.1631 15.8959C24.3147 15.6486 24.3814 15.3584 24.3531 15.0697C24.3747 14.8092 24.3039 14.5494 24.1532 14.3358C24.0871 14.2593 24.0045 14.1991 23.9116 14.1591C23.8188 14.1191 23.7182 14.1004 23.6172 14.1049C23.5177 14.1021 23.4189 14.122 23.3284 14.1635C23.2379 14.2049 23.158 14.267 23.0951 14.3441ZM13.1831 16.9179C13.0088 16.9007 12.8392 16.8512 12.6831 16.7719C12.5415 16.6946 12.4166 16.5902 12.3152 16.4647C12.2114 16.3457 12.1334 16.2068 12.0862 16.056C12.0248 15.8617 11.9912 15.6596 11.9862 15.4559V13.3378H13.0571V15.5057C13.0523 15.5882 13.0639 15.671 13.0912 15.7489C13.1185 15.8268 13.161 15.8984 13.2162 15.9598C13.3375 16.0641 13.4921 16.1215 13.6521 16.1215C13.8121 16.1215 13.9668 16.0641 14.0881 15.9598C14.1433 15.8978 14.1857 15.8254 14.2128 15.747C14.2399 15.6685 14.2512 15.5856 14.2461 15.5028V13.3348H15.3171V15.453C15.3177 15.6572 15.2839 15.8601 15.2172 16.0531C15.1555 16.2367 15.0529 16.4037 14.9171 16.5419C14.7974 16.6725 14.6503 16.7747 14.4862 16.8417C14.245 16.9257 13.9905 16.9658 13.7351 16.9598C13.5508 16.9562 13.3669 16.9418 13.1842 16.9169L13.1831 16.9179ZM28.3221 16.8939L27.0221 14.9418V16.8939H26.0121V13.3388H27.0121L28.3212 15.3051V13.3388H29.3331V16.8939H28.3221ZM18.3441 16.8939L17.0442 14.9418V16.8939H16.0342V13.3388H17.0342L18.3422 15.3051V13.3388H19.3541V16.8939H18.3441ZM20.1141 16.8847V13.3358H21.1941V16.8847H20.1141ZM11.9092 11.9037C11.6777 11.6638 11.5402 11.3489 11.5221 11.016L12.5442 10.9511C12.5549 11.0897 12.6009 11.223 12.6781 11.3388C12.7338 11.4104 12.806 11.4675 12.8885 11.5053C12.9711 11.543 13.0615 11.5607 13.1521 11.556C13.2801 11.5646 13.4068 11.5246 13.5072 11.4447C13.5448 11.415 13.5752 11.3774 13.5963 11.3344C13.6174 11.2914 13.6287 11.2441 13.6293 11.1962C13.6298 11.1483 13.6197 11.101 13.5996 11.0575C13.5795 11.014 13.55 10.9753 13.5132 10.9447C13.347 10.837 13.1592 10.7666 12.9631 10.7387C12.5977 10.6775 12.2524 10.5297 11.9562 10.307C11.8585 10.222 11.7809 10.1161 11.729 9.99744C11.6771 9.87882 11.6523 9.7504 11.6561 9.62098C11.6566 9.43727 11.7105 9.25756 11.8112 9.10389C11.9251 8.93247 12.0878 8.79926 12.2782 8.72108C12.5507 8.61673 12.8417 8.56926 13.1332 8.58192C13.4901 8.55811 13.8455 8.64686 14.1492 8.83582C14.2717 8.93276 14.3721 9.05493 14.4438 9.19373C14.5156 9.33254 14.557 9.48497 14.5652 9.641L13.5531 9.70203C13.5399 9.56915 13.4796 9.44526 13.3832 9.35291C13.2811 9.27498 13.1543 9.23641 13.0261 9.24403C12.9255 9.2367 12.8255 9.26546 12.7441 9.32508C12.7142 9.34904 12.69 9.3793 12.6736 9.41395C12.6571 9.4486 12.6488 9.48643 12.6492 9.52479C12.65 9.55474 12.6575 9.58407 12.6711 9.61073C12.6848 9.63738 12.7043 9.66097 12.7281 9.67909C12.8374 9.74862 12.9606 9.79291 13.0891 9.80897C13.4367 9.87333 13.7754 9.9787 14.0981 10.1229C14.2801 10.2101 14.4337 10.3471 14.5411 10.518C14.634 10.6772 14.6818 10.8586 14.6792 11.0429C14.6804 11.2667 14.6161 11.4859 14.4941 11.6737C14.3687 11.8675 14.1889 12.0198 13.9772 12.1117C13.7118 12.2188 13.4271 12.2699 13.1411 12.2611C12.6995 12.3073 12.2573 12.1784 11.9092 11.9027V11.9037ZM28.3231 12.1937L27.0232 10.2411V12.1937H26.0132V8.63905H27.0132L28.3221 10.6058V8.63905H29.3341V12.1937H28.3231ZM24.4481 12.1937L23.8741 11.1068C23.828 11.0038 23.7617 10.911 23.6792 10.8339C23.6023 10.7788 23.5097 10.7498 23.4152 10.7509H23.3202V12.1937H22.2411V8.63905H24.0302C24.2868 8.62897 24.5434 8.65823 24.7911 8.72596C24.9651 8.78279 25.1149 8.89634 25.2162 9.04871C25.3274 9.21979 25.3835 9.42096 25.3772 9.62489C25.3817 9.80305 25.3392 9.9795 25.2542 10.1361C25.1717 10.2785 25.0548 10.3975 24.9142 10.4828C24.7967 10.5496 24.6694 10.5976 24.5371 10.6249C24.6363 10.6542 24.7307 10.6979 24.8171 10.7548C24.8814 10.8104 24.9388 10.8735 24.9882 10.9428C25.0452 11.0112 25.0958 11.0851 25.1392 11.163L25.6592 12.1937H24.4481ZM23.3212 10.078H23.7742C23.8701 10.0711 23.9652 10.0547 24.0581 10.0297C24.1278 10.0153 24.1898 9.97599 24.2322 9.91883C24.2773 9.85934 24.3012 9.78645 24.3002 9.7118C24.3033 9.66244 24.2952 9.61313 24.2767 9.56727C24.2582 9.52141 24.2296 9.48004 24.1931 9.44666C24.0734 9.37312 23.9328 9.34132 23.7931 9.35584H23.3212V10.078ZM18.7212 12.1937V8.63905H21.5991V9.39784H19.7992V9.96278H21.4712V10.6889H19.7992V11.389H21.6542V12.1937H18.7212ZM16.0691 12.1937V9.51698H14.9741V8.63905H18.2391V9.51698H17.1392V12.1937H16.0691ZM8.2041 12.1937V8.63905H11.0822V9.39784H9.2821V9.96278H10.9531V10.6889H9.27417V11.389H11.1272V12.1937H8.2041ZM6.03711 12.1937L5.4281 9.95496L4.82117 12.1937H3.76819L2.99512 8.63905H4.01514L4.3822 10.6288L4.92017 8.63905H5.93616L6.4751 10.6268L6.84216 8.63905H7.85718L7.09119 12.1937H6.03711Z" fill="#ECD345"/>
<path d="M34.1243 16.9561V8.57617H35.3242V16.9561H34.1243ZM31.1343 16.9561V8.57617H32.3342V16.9561H31.1343Z" fill="#ECD345"/>
</svg>
