<svg width="18" height="13" viewBox="0 0 18 13" fill="none" xmlns="http://www.w3.org/2000/svg">
<path d="M16.9848 2.1327C16.89 1.77229 16.7039 1.44362 16.4454 1.17958C16.1869 0.915542 15.8649 0.725395 15.5116 0.628169C14.2114 0.271484 8.99935 0.271484 8.99935 0.271484C8.99935 0.271484 3.78729 0.271484 2.48707 0.626272C2.13369 0.723182 1.81152 0.913224 1.55293 1.17731C1.29434 1.4414 1.10842 1.77024 1.01386 2.1308C0.666016 3.45888 0.666016 6.22888 0.666016 6.22888C0.666016 6.22888 0.666016 8.99888 1.01386 10.3251C1.20545 11.0574 1.77093 11.6342 2.48707 11.8296C3.78729 12.1863 8.99935 12.1863 8.99935 12.1863C8.99935 12.1863 14.2114 12.1863 15.5116 11.8296C16.2296 11.6342 16.7932 11.0574 16.9848 10.3251C17.3327 8.99888 17.3327 6.22888 17.3327 6.22888C17.3327 6.22888 17.3327 3.45888 16.9848 2.1327ZM7.34384 8.77121V3.68655L11.6593 6.20991L7.34384 8.77121Z" fill="#AAAAAA"/>
</svg>
